<svg width="368" height="514" viewBox="0 0 368 514" fill="none" xmlns="http://www.w3.org/2000/svg">
<path d="M190.278 0.106986C85.9773 -3.40801 0.323242 80.095 0.323242 183.602C0.323242 301.071 113.053 386.322 176.238 508.924C179.446 515.149 188.407 515.157 191.626 508.933C248.786 398.616 346.48 324.642 364.585 218.364C383.331 108.387 301.776 3.86599 190.278 0.106986ZM183.923 279.773C130.81 279.773 87.7522 236.714 87.7522 183.602C87.7522 130.49 130.811 87.431 183.923 87.431C237.036 87.431 280.095 130.49 280.095 183.602C280.095 236.714 237.036 279.773 183.923 279.773Z" fill="white"/>
</svg>
