<svg width="27" height="43" viewBox="0 0 27 43" fill="none" xmlns="http://www.w3.org/2000/svg">
<path d="M13.4994 0C6.05621 0 0 7.06542 0 15.7499C0 18.0151 0.397417 20.1779 1.18062 22.1787C4.55585 30.7953 11.0271 39.8926 12.9305 42.4753C13.0731 42.6683 13.281 42.7795 13.4998 42.7795C13.7186 42.7795 13.9265 42.6683 14.0691 42.4753C15.9718 39.893 22.443 30.7962 25.8194 22.1787C26.603 20.1779 27 18.0151 27 15.7499C26.9992 7.06542 20.943 0 13.4994 0ZM13.4994 23.9304C9.63297 23.9304 6.48702 20.2602 6.48702 15.7494C6.48702 11.2382 9.63297 7.56803 13.4994 7.56803C17.3659 7.56803 20.5118 11.2382 20.5118 15.7494C20.5122 20.2602 17.3663 23.9304 13.4994 23.9304Z" fill="white"/>
</svg>
