<svg width="33" height="33" viewBox="0 0 33 33" fill="none" xmlns="http://www.w3.org/2000/svg">
<g clip-path="url(#clip0)">
<path d="M30.0996 3.93164H2.9004C2.45393 3.93164 2.03595 4.0414 1.65781 4.22232L16.4356 19.0001L19.7477 15.8169C19.7477 15.8169 19.748 15.8166 19.7481 15.8165C19.7481 15.8163 19.7484 15.8162 19.7484 15.8162L31.3427 4.22258C30.9644 4.04153 30.5462 3.93164 30.0996 3.93164Z" fill="white"/>
<path d="M32.7097 5.58984L21.7989 16.5001L32.7093 27.4105C32.8902 27.0324 33 26.6144 33 26.1679V6.83198C33 6.38578 32.8905 5.96786 32.7097 5.58984Z" fill="white"/>
<path d="M0.290684 5.58936C0.109764 5.9675 0 6.38548 0 6.83195V26.1679C0 26.6141 0.109635 27.0321 0.290426 27.4102L11.2012 16.4999L0.290684 5.58936Z" fill="white"/>
<path d="M20.4318 17.8673L17.1191 21.0508C16.9303 21.2397 16.6829 21.3341 16.4356 21.3341C16.1883 21.3341 15.9409 21.2397 15.7521 21.0508L12.5684 17.8672L1.65735 28.7775C2.03556 28.9585 2.4538 29.0684 2.90039 29.0684H30.0996C30.5461 29.0684 30.9641 28.9587 31.3422 28.7777L20.4318 17.8673Z" fill="white"/>
</g>
<defs>
<clipPath id="clip0">
<rect width="33" height="33" fill="white"/>
</clipPath>
</defs>
</svg>
